<mxfile host="Electron" modified="2024-04-16T06:27:09.218Z" agent="Mozilla/5.0 (Windows NT 10.0; Win64; x64) AppleWebKit/537.36 (KHTML, like Gecko) draw.io/24.2.5 Chrome/120.0.6099.109 Electron/28.1.0 Safari/537.36" etag="oMRsJw9Bw274WDKrluNM" version="24.2.5" type="device">
  <diagram name="Page-1" id="sioYRf8UXPatwtXDIzv3">
    <mxGraphModel dx="1373" dy="1044" grid="1" gridSize="10" guides="1" tooltips="1" connect="1" arrows="1" fold="1" page="1" pageScale="1" pageWidth="827" pageHeight="1169" math="0" shadow="0">
      <root>
        <mxCell id="0" />
        <mxCell id="1" parent="0" />
        <mxCell id="imHsHSKxx16aIQ_CfQCZ-115" value="" style="rounded=0;whiteSpace=wrap;html=1;" vertex="1" parent="1">
          <mxGeometry x="850" y="90" width="776" height="690" as="geometry" />
        </mxCell>
        <mxCell id="imHsHSKxx16aIQ_CfQCZ-114" value="" style="rounded=0;whiteSpace=wrap;html=1;" vertex="1" parent="1">
          <mxGeometry x="30" y="90" width="780" height="690" as="geometry" />
        </mxCell>
        <mxCell id="imHsHSKxx16aIQ_CfQCZ-2" value="" style="rounded=1;whiteSpace=wrap;html=1;fillColor=none;" vertex="1" parent="1">
          <mxGeometry x="40" y="125" width="456" height="130" as="geometry" />
        </mxCell>
        <mxCell id="imHsHSKxx16aIQ_CfQCZ-3" style="edgeStyle=orthogonalEdgeStyle;rounded=0;orthogonalLoop=1;jettySize=auto;html=1;exitX=0;exitY=0.5;exitDx=0;exitDy=0;entryX=0.75;entryY=0;entryDx=0;entryDy=0;" edge="1" parent="1">
          <mxGeometry relative="1" as="geometry">
            <mxPoint x="676" y="270" as="sourcePoint" />
            <mxPoint x="260" y="320" as="targetPoint" />
            <Array as="points">
              <mxPoint x="556" y="270" />
              <mxPoint x="260" y="270" />
            </Array>
          </mxGeometry>
        </mxCell>
        <mxCell id="imHsHSKxx16aIQ_CfQCZ-13" style="edgeStyle=orthogonalEdgeStyle;rounded=0;orthogonalLoop=1;jettySize=auto;html=1;exitX=0;exitY=0.5;exitDx=0;exitDy=0;entryX=0.75;entryY=0;entryDx=0;entryDy=0;" edge="1" parent="1" source="jAT1CyBngLuAXYM52mBv-2" target="imHsHSKxx16aIQ_CfQCZ-11">
          <mxGeometry relative="1" as="geometry">
            <Array as="points">
              <mxPoint x="676" y="270" />
              <mxPoint x="130" y="270" />
            </Array>
          </mxGeometry>
        </mxCell>
        <mxCell id="imHsHSKxx16aIQ_CfQCZ-18" style="edgeStyle=orthogonalEdgeStyle;rounded=0;orthogonalLoop=1;jettySize=auto;html=1;exitX=0;exitY=0.5;exitDx=0;exitDy=0;entryX=0.75;entryY=0;entryDx=0;entryDy=0;" edge="1" parent="1" source="jAT1CyBngLuAXYM52mBv-2" target="jAT1CyBngLuAXYM52mBv-6">
          <mxGeometry relative="1" as="geometry">
            <Array as="points">
              <mxPoint x="676" y="270" />
              <mxPoint x="386" y="270" />
            </Array>
          </mxGeometry>
        </mxCell>
        <mxCell id="imHsHSKxx16aIQ_CfQCZ-19" style="edgeStyle=orthogonalEdgeStyle;rounded=0;orthogonalLoop=1;jettySize=auto;html=1;exitX=0;exitY=0.5;exitDx=0;exitDy=0;entryX=0.75;entryY=0;entryDx=0;entryDy=0;" edge="1" parent="1" source="jAT1CyBngLuAXYM52mBv-2" target="jAT1CyBngLuAXYM52mBv-7">
          <mxGeometry relative="1" as="geometry">
            <Array as="points">
              <mxPoint x="676" y="270" />
              <mxPoint x="514" y="270" />
            </Array>
          </mxGeometry>
        </mxCell>
        <mxCell id="jAT1CyBngLuAXYM52mBv-2" value="&lt;font style=&quot;font-size: 16px;&quot;&gt;Day(DateTime)&lt;/font&gt;&lt;div&gt;&lt;font color=&quot;#a3fc7c&quot; style=&quot;font-size: 16px;&quot;&gt;&lt;b&gt;Day 0&lt;/b&gt;&lt;/font&gt;&lt;/div&gt;" style="shape=ext;double=1;rounded=1;whiteSpace=wrap;html=1;fillColor=#60a917;strokeColor=#2D7600;fontColor=#ffffff;" parent="1" vertex="1">
          <mxGeometry x="676" y="220" width="120" height="80" as="geometry" />
        </mxCell>
        <mxCell id="jAT1CyBngLuAXYM52mBv-30" style="edgeStyle=orthogonalEdgeStyle;rounded=0;orthogonalLoop=1;jettySize=auto;html=1;exitX=0.75;exitY=1;exitDx=0;exitDy=0;entryX=1;entryY=0.5;entryDx=0;entryDy=0;" parent="1" source="jAT1CyBngLuAXYM52mBv-6" target="jAT1CyBngLuAXYM52mBv-28" edge="1">
          <mxGeometry relative="1" as="geometry" />
        </mxCell>
        <mxCell id="jAT1CyBngLuAXYM52mBv-6" value="SanctoralCtrl.py" style="shape=ext;double=1;rounded=0;whiteSpace=wrap;html=1;" parent="1" vertex="1">
          <mxGeometry x="296" y="310" width="120" height="80" as="geometry" />
        </mxCell>
        <mxCell id="jAT1CyBngLuAXYM52mBv-33" style="edgeStyle=orthogonalEdgeStyle;rounded=0;orthogonalLoop=1;jettySize=auto;html=1;exitX=0.5;exitY=1;exitDx=0;exitDy=0;entryX=1;entryY=0.5;entryDx=0;entryDy=0;" parent="1" source="jAT1CyBngLuAXYM52mBv-7" target="jAT1CyBngLuAXYM52mBv-31" edge="1">
          <mxGeometry relative="1" as="geometry" />
        </mxCell>
        <mxCell id="jAT1CyBngLuAXYM52mBv-7" value="TemporalCtrl.py" style="shape=ext;double=1;rounded=0;whiteSpace=wrap;html=1;" parent="1" vertex="1">
          <mxGeometry x="424" y="310" width="120" height="80" as="geometry" />
        </mxCell>
        <mxCell id="imHsHSKxx16aIQ_CfQCZ-15" style="edgeStyle=orthogonalEdgeStyle;rounded=0;orthogonalLoop=1;jettySize=auto;html=1;exitX=0.5;exitY=1;exitDx=0;exitDy=0;entryX=1;entryY=0.5;entryDx=0;entryDy=0;" edge="1" parent="1" source="jAT1CyBngLuAXYM52mBv-13" target="imHsHSKxx16aIQ_CfQCZ-14">
          <mxGeometry relative="1" as="geometry" />
        </mxCell>
        <mxCell id="jAT1CyBngLuAXYM52mBv-13" value="PropreCtrl.py" style="shape=ext;double=1;rounded=0;whiteSpace=wrap;html=1;" parent="1" vertex="1">
          <mxGeometry x="170" y="310" width="120" height="80" as="geometry" />
        </mxCell>
        <mxCell id="jAT1CyBngLuAXYM52mBv-24" style="edgeStyle=orthogonalEdgeStyle;rounded=0;orthogonalLoop=1;jettySize=auto;html=1;exitX=0.5;exitY=1;exitDx=0;exitDy=0;exitPerimeter=0;entryX=0.25;entryY=0;entryDx=0;entryDy=0;startArrow=classic;startFill=1;" parent="1" source="jAT1CyBngLuAXYM52mBv-14" target="jAT1CyBngLuAXYM52mBv-13" edge="1">
          <mxGeometry relative="1" as="geometry" />
        </mxCell>
        <mxCell id="jAT1CyBngLuAXYM52mBv-14" value="Propre" style="strokeWidth=2;html=1;shape=mxgraph.flowchart.database;whiteSpace=wrap;fillColor=#dae8fc;strokeColor=#6c8ebf;" parent="1" vertex="1">
          <mxGeometry x="170" y="160" width="60" height="60" as="geometry" />
        </mxCell>
        <mxCell id="jAT1CyBngLuAXYM52mBv-25" style="edgeStyle=orthogonalEdgeStyle;rounded=0;orthogonalLoop=1;jettySize=auto;html=1;exitX=0.5;exitY=1;exitDx=0;exitDy=0;exitPerimeter=0;entryX=0.25;entryY=0;entryDx=0;entryDy=0;startArrow=classic;startFill=1;" parent="1" source="jAT1CyBngLuAXYM52mBv-15" target="jAT1CyBngLuAXYM52mBv-6" edge="1">
          <mxGeometry relative="1" as="geometry" />
        </mxCell>
        <mxCell id="jAT1CyBngLuAXYM52mBv-15" value="Sanctoral" style="strokeWidth=2;html=1;shape=mxgraph.flowchart.database;whiteSpace=wrap;fillColor=#dae8fc;strokeColor=#6c8ebf;" parent="1" vertex="1">
          <mxGeometry x="296" y="160" width="60" height="60" as="geometry" />
        </mxCell>
        <mxCell id="jAT1CyBngLuAXYM52mBv-26" style="edgeStyle=orthogonalEdgeStyle;rounded=0;orthogonalLoop=1;jettySize=auto;html=1;exitX=0.5;exitY=1;exitDx=0;exitDy=0;exitPerimeter=0;entryX=0.25;entryY=0;entryDx=0;entryDy=0;startArrow=classic;startFill=1;" parent="1" source="jAT1CyBngLuAXYM52mBv-16" target="jAT1CyBngLuAXYM52mBv-7" edge="1">
          <mxGeometry relative="1" as="geometry" />
        </mxCell>
        <mxCell id="jAT1CyBngLuAXYM52mBv-16" value="Temporal" style="strokeWidth=2;html=1;shape=mxgraph.flowchart.database;whiteSpace=wrap;fillColor=#dae8fc;strokeColor=#6c8ebf;" parent="1" vertex="1">
          <mxGeometry x="424" y="160" width="60" height="60" as="geometry" />
        </mxCell>
        <mxCell id="jAT1CyBngLuAXYM52mBv-17" style="edgeStyle=orthogonalEdgeStyle;rounded=0;orthogonalLoop=1;jettySize=auto;html=1;exitX=0.5;exitY=1;exitDx=0;exitDy=0;exitPerimeter=0;" parent="1" source="jAT1CyBngLuAXYM52mBv-16" target="jAT1CyBngLuAXYM52mBv-16" edge="1">
          <mxGeometry relative="1" as="geometry" />
        </mxCell>
        <mxCell id="jAT1CyBngLuAXYM52mBv-21" style="edgeStyle=orthogonalEdgeStyle;rounded=0;orthogonalLoop=1;jettySize=auto;html=1;exitX=0.5;exitY=1;exitDx=0;exitDy=0;exitPerimeter=0;" parent="1" source="jAT1CyBngLuAXYM52mBv-15" target="jAT1CyBngLuAXYM52mBv-15" edge="1">
          <mxGeometry relative="1" as="geometry" />
        </mxCell>
        <mxCell id="jAT1CyBngLuAXYM52mBv-32" style="edgeStyle=orthogonalEdgeStyle;rounded=0;orthogonalLoop=1;jettySize=auto;html=1;exitX=0.5;exitY=1;exitDx=0;exitDy=0;entryX=0;entryY=0.5;entryDx=0;entryDy=0;" parent="1" source="jAT1CyBngLuAXYM52mBv-28" target="jAT1CyBngLuAXYM52mBv-31" edge="1">
          <mxGeometry relative="1" as="geometry" />
        </mxCell>
        <mxCell id="jAT1CyBngLuAXYM52mBv-28" value="OccurenceCtrl.py" style="rounded=1;whiteSpace=wrap;html=1;absoluteArcSize=1;arcSize=14;strokeWidth=2;" parent="1" vertex="1">
          <mxGeometry x="246" y="530" width="100" height="100" as="geometry" />
        </mxCell>
        <mxCell id="imHsHSKxx16aIQ_CfQCZ-111" style="edgeStyle=orthogonalEdgeStyle;rounded=0;orthogonalLoop=1;jettySize=auto;html=1;exitX=0.5;exitY=1;exitDx=0;exitDy=0;entryX=0;entryY=0.5;entryDx=0;entryDy=0;" edge="1" parent="1" source="jAT1CyBngLuAXYM52mBv-31" target="imHsHSKxx16aIQ_CfQCZ-5">
          <mxGeometry relative="1" as="geometry" />
        </mxCell>
        <mxCell id="jAT1CyBngLuAXYM52mBv-31" value="OccurenceCtrl.py" style="rounded=1;whiteSpace=wrap;html=1;absoluteArcSize=1;arcSize=14;strokeWidth=2;" parent="1" vertex="1">
          <mxGeometry x="354" y="650" width="100" height="100" as="geometry" />
        </mxCell>
        <mxCell id="jAT1CyBngLuAXYM52mBv-44" value="&lt;b&gt;&lt;u&gt;&lt;font style=&quot;font-size: 19px;&quot;&gt;Schema global&lt;/font&gt;&lt;/u&gt;&lt;/b&gt;" style="text;html=1;align=center;verticalAlign=middle;whiteSpace=wrap;rounded=0;" parent="1" vertex="1">
          <mxGeometry x="283" y="10" width="262" height="30" as="geometry" />
        </mxCell>
        <mxCell id="imHsHSKxx16aIQ_CfQCZ-4" value="&lt;u&gt;&lt;b&gt;ordo.db&lt;/b&gt;&lt;/u&gt;" style="text;html=1;align=center;verticalAlign=middle;whiteSpace=wrap;rounded=0;" vertex="1" parent="1">
          <mxGeometry x="60" y="120" width="60" height="30" as="geometry" />
        </mxCell>
        <mxCell id="imHsHSKxx16aIQ_CfQCZ-5" value="ConcurenceCtrl.py" style="rounded=1;whiteSpace=wrap;html=1;absoluteArcSize=1;arcSize=14;strokeWidth=2;fillColor=#60a917;fontColor=#ffffff;strokeColor=#2D7600;" vertex="1" parent="1">
          <mxGeometry x="760" y="840" width="120" height="120" as="geometry" />
        </mxCell>
        <mxCell id="imHsHSKxx16aIQ_CfQCZ-8" value="" style="verticalLabelPosition=bottom;html=1;verticalAlign=top;align=center;strokeColor=none;fillColor=#00BEF2;shape=mxgraph.azure.sql_database;" vertex="1" parent="1">
          <mxGeometry x="476" y="220" width="17.5" height="30" as="geometry" />
        </mxCell>
        <mxCell id="imHsHSKxx16aIQ_CfQCZ-10" value="Propre" style="strokeWidth=2;html=1;shape=mxgraph.flowchart.database;whiteSpace=wrap;fillColor=#dae8fc;strokeColor=#6c8ebf;" vertex="1" parent="1">
          <mxGeometry x="60" y="160" width="60" height="60" as="geometry" />
        </mxCell>
        <mxCell id="imHsHSKxx16aIQ_CfQCZ-16" style="edgeStyle=orthogonalEdgeStyle;rounded=0;orthogonalLoop=1;jettySize=auto;html=1;exitX=0.25;exitY=1;exitDx=0;exitDy=0;entryX=0;entryY=0.5;entryDx=0;entryDy=0;" edge="1" parent="1" source="imHsHSKxx16aIQ_CfQCZ-11" target="imHsHSKxx16aIQ_CfQCZ-14">
          <mxGeometry relative="1" as="geometry" />
        </mxCell>
        <mxCell id="imHsHSKxx16aIQ_CfQCZ-11" value="PropreCtrl.py" style="shape=ext;double=1;rounded=0;whiteSpace=wrap;html=1;" vertex="1" parent="1">
          <mxGeometry x="40" y="310" width="120" height="80" as="geometry" />
        </mxCell>
        <mxCell id="imHsHSKxx16aIQ_CfQCZ-12" style="edgeStyle=orthogonalEdgeStyle;rounded=0;orthogonalLoop=1;jettySize=auto;html=1;exitX=0.5;exitY=1;exitDx=0;exitDy=0;exitPerimeter=0;entryX=0.415;entryY=0.02;entryDx=0;entryDy=0;entryPerimeter=0;startArrow=classic;startFill=1;" edge="1" parent="1" source="imHsHSKxx16aIQ_CfQCZ-10" target="imHsHSKxx16aIQ_CfQCZ-11">
          <mxGeometry relative="1" as="geometry" />
        </mxCell>
        <mxCell id="imHsHSKxx16aIQ_CfQCZ-17" style="edgeStyle=orthogonalEdgeStyle;rounded=0;orthogonalLoop=1;jettySize=auto;html=1;exitX=0.5;exitY=1;exitDx=0;exitDy=0;entryX=0;entryY=0.5;entryDx=0;entryDy=0;" edge="1" parent="1" source="imHsHSKxx16aIQ_CfQCZ-14" target="jAT1CyBngLuAXYM52mBv-28">
          <mxGeometry relative="1" as="geometry" />
        </mxCell>
        <mxCell id="imHsHSKxx16aIQ_CfQCZ-14" value="OccurenceCtrl.py" style="rounded=1;whiteSpace=wrap;html=1;absoluteArcSize=1;arcSize=14;strokeWidth=2;" vertex="1" parent="1">
          <mxGeometry x="110" y="420" width="100" height="100" as="geometry" />
        </mxCell>
        <mxCell id="imHsHSKxx16aIQ_CfQCZ-78" value="" style="rounded=1;whiteSpace=wrap;html=1;fillColor=none;" vertex="1" parent="1">
          <mxGeometry x="856" y="125" width="456" height="130" as="geometry" />
        </mxCell>
        <mxCell id="imHsHSKxx16aIQ_CfQCZ-79" style="edgeStyle=orthogonalEdgeStyle;rounded=0;orthogonalLoop=1;jettySize=auto;html=1;exitX=0;exitY=0.5;exitDx=0;exitDy=0;entryX=0.75;entryY=0;entryDx=0;entryDy=0;" edge="1" parent="1">
          <mxGeometry relative="1" as="geometry">
            <mxPoint x="1492" y="270" as="sourcePoint" />
            <mxPoint x="1076" y="320" as="targetPoint" />
            <Array as="points">
              <mxPoint x="1372" y="270" />
              <mxPoint x="1076" y="270" />
            </Array>
          </mxGeometry>
        </mxCell>
        <mxCell id="imHsHSKxx16aIQ_CfQCZ-80" style="edgeStyle=orthogonalEdgeStyle;rounded=0;orthogonalLoop=1;jettySize=auto;html=1;exitX=0;exitY=0.5;exitDx=0;exitDy=0;entryX=0.75;entryY=0;entryDx=0;entryDy=0;" edge="1" parent="1" source="imHsHSKxx16aIQ_CfQCZ-83" target="imHsHSKxx16aIQ_CfQCZ-107">
          <mxGeometry relative="1" as="geometry">
            <Array as="points">
              <mxPoint x="1492" y="270" />
              <mxPoint x="946" y="270" />
            </Array>
          </mxGeometry>
        </mxCell>
        <mxCell id="imHsHSKxx16aIQ_CfQCZ-81" style="edgeStyle=orthogonalEdgeStyle;rounded=0;orthogonalLoop=1;jettySize=auto;html=1;exitX=0;exitY=0.5;exitDx=0;exitDy=0;entryX=0.75;entryY=0;entryDx=0;entryDy=0;" edge="1" parent="1" source="imHsHSKxx16aIQ_CfQCZ-83" target="imHsHSKxx16aIQ_CfQCZ-85">
          <mxGeometry relative="1" as="geometry">
            <Array as="points">
              <mxPoint x="1492" y="270" />
              <mxPoint x="1202" y="270" />
            </Array>
          </mxGeometry>
        </mxCell>
        <mxCell id="imHsHSKxx16aIQ_CfQCZ-82" style="edgeStyle=orthogonalEdgeStyle;rounded=0;orthogonalLoop=1;jettySize=auto;html=1;exitX=0;exitY=0.5;exitDx=0;exitDy=0;entryX=0.75;entryY=0;entryDx=0;entryDy=0;" edge="1" parent="1" source="imHsHSKxx16aIQ_CfQCZ-83" target="imHsHSKxx16aIQ_CfQCZ-87">
          <mxGeometry relative="1" as="geometry">
            <Array as="points">
              <mxPoint x="1492" y="270" />
              <mxPoint x="1330" y="270" />
            </Array>
          </mxGeometry>
        </mxCell>
        <mxCell id="imHsHSKxx16aIQ_CfQCZ-83" value="&lt;font style=&quot;font-size: 16px;&quot;&gt;Day(DateTime)&lt;/font&gt;&lt;div&gt;&lt;font color=&quot;#a3fc7c&quot; style=&quot;font-size: 16px;&quot;&gt;&lt;b&gt;Day + 1&lt;/b&gt;&lt;/font&gt;&lt;/div&gt;" style="shape=ext;double=1;rounded=1;whiteSpace=wrap;html=1;fillColor=#60a917;strokeColor=#2D7600;fontColor=#ffffff;" vertex="1" parent="1">
          <mxGeometry x="1492" y="220" width="120" height="80" as="geometry" />
        </mxCell>
        <mxCell id="imHsHSKxx16aIQ_CfQCZ-84" style="edgeStyle=orthogonalEdgeStyle;rounded=0;orthogonalLoop=1;jettySize=auto;html=1;exitX=0.75;exitY=1;exitDx=0;exitDy=0;entryX=1;entryY=0.5;entryDx=0;entryDy=0;" edge="1" parent="1" source="imHsHSKxx16aIQ_CfQCZ-85" target="imHsHSKxx16aIQ_CfQCZ-99">
          <mxGeometry relative="1" as="geometry" />
        </mxCell>
        <mxCell id="imHsHSKxx16aIQ_CfQCZ-85" value="SanctoralCtrl.py" style="shape=ext;double=1;rounded=0;whiteSpace=wrap;html=1;" vertex="1" parent="1">
          <mxGeometry x="1112" y="310" width="120" height="80" as="geometry" />
        </mxCell>
        <mxCell id="imHsHSKxx16aIQ_CfQCZ-86" style="edgeStyle=orthogonalEdgeStyle;rounded=0;orthogonalLoop=1;jettySize=auto;html=1;exitX=0.5;exitY=1;exitDx=0;exitDy=0;entryX=1;entryY=0.5;entryDx=0;entryDy=0;" edge="1" parent="1" source="imHsHSKxx16aIQ_CfQCZ-87" target="imHsHSKxx16aIQ_CfQCZ-101">
          <mxGeometry relative="1" as="geometry" />
        </mxCell>
        <mxCell id="imHsHSKxx16aIQ_CfQCZ-87" value="TemporalCtrl.py" style="shape=ext;double=1;rounded=0;whiteSpace=wrap;html=1;" vertex="1" parent="1">
          <mxGeometry x="1240" y="310" width="120" height="80" as="geometry" />
        </mxCell>
        <mxCell id="imHsHSKxx16aIQ_CfQCZ-88" style="edgeStyle=orthogonalEdgeStyle;rounded=0;orthogonalLoop=1;jettySize=auto;html=1;exitX=0.5;exitY=1;exitDx=0;exitDy=0;entryX=1;entryY=0.5;entryDx=0;entryDy=0;" edge="1" parent="1" source="imHsHSKxx16aIQ_CfQCZ-89" target="imHsHSKxx16aIQ_CfQCZ-110">
          <mxGeometry relative="1" as="geometry" />
        </mxCell>
        <mxCell id="imHsHSKxx16aIQ_CfQCZ-89" value="PropreCtrl.py" style="shape=ext;double=1;rounded=0;whiteSpace=wrap;html=1;" vertex="1" parent="1">
          <mxGeometry x="986" y="310" width="120" height="80" as="geometry" />
        </mxCell>
        <mxCell id="imHsHSKxx16aIQ_CfQCZ-90" style="edgeStyle=orthogonalEdgeStyle;rounded=0;orthogonalLoop=1;jettySize=auto;html=1;exitX=0.5;exitY=1;exitDx=0;exitDy=0;exitPerimeter=0;entryX=0.25;entryY=0;entryDx=0;entryDy=0;startArrow=classic;startFill=1;" edge="1" parent="1" source="imHsHSKxx16aIQ_CfQCZ-91" target="imHsHSKxx16aIQ_CfQCZ-89">
          <mxGeometry relative="1" as="geometry" />
        </mxCell>
        <mxCell id="imHsHSKxx16aIQ_CfQCZ-91" value="Propre" style="strokeWidth=2;html=1;shape=mxgraph.flowchart.database;whiteSpace=wrap;fillColor=#dae8fc;strokeColor=#6c8ebf;" vertex="1" parent="1">
          <mxGeometry x="986" y="160" width="60" height="60" as="geometry" />
        </mxCell>
        <mxCell id="imHsHSKxx16aIQ_CfQCZ-92" style="edgeStyle=orthogonalEdgeStyle;rounded=0;orthogonalLoop=1;jettySize=auto;html=1;exitX=0.5;exitY=1;exitDx=0;exitDy=0;exitPerimeter=0;entryX=0.25;entryY=0;entryDx=0;entryDy=0;startArrow=classic;startFill=1;" edge="1" parent="1" source="imHsHSKxx16aIQ_CfQCZ-93" target="imHsHSKxx16aIQ_CfQCZ-85">
          <mxGeometry relative="1" as="geometry" />
        </mxCell>
        <mxCell id="imHsHSKxx16aIQ_CfQCZ-93" value="Sanctoral" style="strokeWidth=2;html=1;shape=mxgraph.flowchart.database;whiteSpace=wrap;fillColor=#dae8fc;strokeColor=#6c8ebf;" vertex="1" parent="1">
          <mxGeometry x="1112" y="160" width="60" height="60" as="geometry" />
        </mxCell>
        <mxCell id="imHsHSKxx16aIQ_CfQCZ-94" style="edgeStyle=orthogonalEdgeStyle;rounded=0;orthogonalLoop=1;jettySize=auto;html=1;exitX=0.5;exitY=1;exitDx=0;exitDy=0;exitPerimeter=0;entryX=0.25;entryY=0;entryDx=0;entryDy=0;startArrow=classic;startFill=1;" edge="1" parent="1" source="imHsHSKxx16aIQ_CfQCZ-95" target="imHsHSKxx16aIQ_CfQCZ-87">
          <mxGeometry relative="1" as="geometry" />
        </mxCell>
        <mxCell id="imHsHSKxx16aIQ_CfQCZ-95" value="Temporal" style="strokeWidth=2;html=1;shape=mxgraph.flowchart.database;whiteSpace=wrap;fillColor=#dae8fc;strokeColor=#6c8ebf;" vertex="1" parent="1">
          <mxGeometry x="1240" y="160" width="60" height="60" as="geometry" />
        </mxCell>
        <mxCell id="imHsHSKxx16aIQ_CfQCZ-96" style="edgeStyle=orthogonalEdgeStyle;rounded=0;orthogonalLoop=1;jettySize=auto;html=1;exitX=0.5;exitY=1;exitDx=0;exitDy=0;exitPerimeter=0;" edge="1" parent="1" source="imHsHSKxx16aIQ_CfQCZ-95" target="imHsHSKxx16aIQ_CfQCZ-95">
          <mxGeometry relative="1" as="geometry" />
        </mxCell>
        <mxCell id="imHsHSKxx16aIQ_CfQCZ-97" style="edgeStyle=orthogonalEdgeStyle;rounded=0;orthogonalLoop=1;jettySize=auto;html=1;exitX=0.5;exitY=1;exitDx=0;exitDy=0;exitPerimeter=0;" edge="1" parent="1" source="imHsHSKxx16aIQ_CfQCZ-93" target="imHsHSKxx16aIQ_CfQCZ-93">
          <mxGeometry relative="1" as="geometry" />
        </mxCell>
        <mxCell id="imHsHSKxx16aIQ_CfQCZ-98" style="edgeStyle=orthogonalEdgeStyle;rounded=0;orthogonalLoop=1;jettySize=auto;html=1;exitX=0.5;exitY=1;exitDx=0;exitDy=0;entryX=0;entryY=0.5;entryDx=0;entryDy=0;" edge="1" parent="1" source="imHsHSKxx16aIQ_CfQCZ-99" target="imHsHSKxx16aIQ_CfQCZ-101">
          <mxGeometry relative="1" as="geometry" />
        </mxCell>
        <mxCell id="imHsHSKxx16aIQ_CfQCZ-99" value="OccurenceCtrl.py" style="rounded=1;whiteSpace=wrap;html=1;absoluteArcSize=1;arcSize=14;strokeWidth=2;" vertex="1" parent="1">
          <mxGeometry x="1062" y="530" width="100" height="100" as="geometry" />
        </mxCell>
        <mxCell id="imHsHSKxx16aIQ_CfQCZ-112" style="edgeStyle=orthogonalEdgeStyle;rounded=0;orthogonalLoop=1;jettySize=auto;html=1;exitX=0.5;exitY=1;exitDx=0;exitDy=0;entryX=1;entryY=0.5;entryDx=0;entryDy=0;" edge="1" parent="1" source="imHsHSKxx16aIQ_CfQCZ-101" target="imHsHSKxx16aIQ_CfQCZ-5">
          <mxGeometry relative="1" as="geometry" />
        </mxCell>
        <mxCell id="imHsHSKxx16aIQ_CfQCZ-101" value="OccurenceCtrl.py" style="rounded=1;whiteSpace=wrap;html=1;absoluteArcSize=1;arcSize=14;strokeWidth=2;" vertex="1" parent="1">
          <mxGeometry x="1170" y="650" width="100" height="100" as="geometry" />
        </mxCell>
        <mxCell id="imHsHSKxx16aIQ_CfQCZ-102" value="&lt;u&gt;&lt;b&gt;ordo.db&lt;/b&gt;&lt;/u&gt;" style="text;html=1;align=center;verticalAlign=middle;whiteSpace=wrap;rounded=0;" vertex="1" parent="1">
          <mxGeometry x="876" y="120" width="60" height="30" as="geometry" />
        </mxCell>
        <mxCell id="imHsHSKxx16aIQ_CfQCZ-104" value="" style="verticalLabelPosition=bottom;html=1;verticalAlign=top;align=center;strokeColor=none;fillColor=#00BEF2;shape=mxgraph.azure.sql_database;" vertex="1" parent="1">
          <mxGeometry x="1292" y="220" width="17.5" height="30" as="geometry" />
        </mxCell>
        <mxCell id="imHsHSKxx16aIQ_CfQCZ-105" value="Propre" style="strokeWidth=2;html=1;shape=mxgraph.flowchart.database;whiteSpace=wrap;fillColor=#dae8fc;strokeColor=#6c8ebf;" vertex="1" parent="1">
          <mxGeometry x="876" y="160" width="60" height="60" as="geometry" />
        </mxCell>
        <mxCell id="imHsHSKxx16aIQ_CfQCZ-106" style="edgeStyle=orthogonalEdgeStyle;rounded=0;orthogonalLoop=1;jettySize=auto;html=1;exitX=0.25;exitY=1;exitDx=0;exitDy=0;entryX=0;entryY=0.5;entryDx=0;entryDy=0;" edge="1" parent="1" source="imHsHSKxx16aIQ_CfQCZ-107" target="imHsHSKxx16aIQ_CfQCZ-110">
          <mxGeometry relative="1" as="geometry" />
        </mxCell>
        <mxCell id="imHsHSKxx16aIQ_CfQCZ-107" value="PropreCtrl.py" style="shape=ext;double=1;rounded=0;whiteSpace=wrap;html=1;" vertex="1" parent="1">
          <mxGeometry x="856" y="310" width="120" height="80" as="geometry" />
        </mxCell>
        <mxCell id="imHsHSKxx16aIQ_CfQCZ-108" style="edgeStyle=orthogonalEdgeStyle;rounded=0;orthogonalLoop=1;jettySize=auto;html=1;exitX=0.5;exitY=1;exitDx=0;exitDy=0;exitPerimeter=0;entryX=0.415;entryY=0.02;entryDx=0;entryDy=0;entryPerimeter=0;startArrow=classic;startFill=1;" edge="1" parent="1" source="imHsHSKxx16aIQ_CfQCZ-105" target="imHsHSKxx16aIQ_CfQCZ-107">
          <mxGeometry relative="1" as="geometry" />
        </mxCell>
        <mxCell id="imHsHSKxx16aIQ_CfQCZ-109" style="edgeStyle=orthogonalEdgeStyle;rounded=0;orthogonalLoop=1;jettySize=auto;html=1;exitX=0.5;exitY=1;exitDx=0;exitDy=0;entryX=0;entryY=0.5;entryDx=0;entryDy=0;" edge="1" parent="1" source="imHsHSKxx16aIQ_CfQCZ-110" target="imHsHSKxx16aIQ_CfQCZ-99">
          <mxGeometry relative="1" as="geometry" />
        </mxCell>
        <mxCell id="imHsHSKxx16aIQ_CfQCZ-110" value="OccurenceCtrl.py" style="rounded=1;whiteSpace=wrap;html=1;absoluteArcSize=1;arcSize=14;strokeWidth=2;" vertex="1" parent="1">
          <mxGeometry x="926" y="420" width="100" height="100" as="geometry" />
        </mxCell>
      </root>
    </mxGraphModel>
  </diagram>
</mxfile>
